<svg width="17" height="13" viewBox="0 0 17 13" fill="none" xmlns="http://www.w3.org/2000/svg">
<g clip-path="url(#clip0_50_329)">
<path d="M11.8241 12.2997C11.7382 12.4012 11.6216 12.4583 11.5001 12.4583C11.3785 12.4583 11.262 12.4012 11.176 12.2997L8.42602 9.04966C8.34253 8.9475 8.29634 8.81067 8.29738 8.66865C8.29842 8.52663 8.34663 8.39077 8.43161 8.29034C8.51658 8.18991 8.63154 8.13295 8.75171 8.13171C8.87189 8.13048 8.98766 8.18507 9.07411 8.28374L11.0417 10.6091V1.08337C11.0417 0.93971 11.09 0.801934 11.176 0.700352C11.2619 0.59877 11.3785 0.541702 11.5001 0.541702C11.6216 0.541702 11.7382 0.59877 11.8242 0.700352C11.9101 0.801934 11.9584 0.93971 11.9584 1.08337V10.6091L13.926 8.28374C14.0125 8.18507 14.1282 8.13048 14.2484 8.13171C14.3686 8.13295 14.4835 8.18991 14.5685 8.29034C14.6535 8.39077 14.7017 8.52663 14.7027 8.66865C14.7038 8.81067 14.6576 8.9475 14.5741 9.04966L11.8241 12.2997Z" fill="#979797"/>
</g>
<g clip-path="url(#clip1_50_329)">
<path d="M5.17589 0.700341C5.26184 0.598794 5.3784 0.541748 5.49994 0.541748C5.62147 0.541748 5.73803 0.598794 5.82398 0.700341L8.57398 3.95034C8.65747 4.0525 8.70366 4.18933 8.70262 4.33135C8.70158 4.47337 8.65337 4.60923 8.56839 4.70966C8.48342 4.81009 8.36846 4.86705 8.24829 4.86829C8.12811 4.86952 8.01234 4.81493 7.92589 4.71626L5.95827 2.39088L5.95827 11.9166C5.95827 12.0603 5.90998 12.1981 5.82403 12.2996C5.73807 12.4012 5.62149 12.4583 5.49994 12.4583C5.37838 12.4583 5.2618 12.4012 5.17584 12.2996C5.08989 12.1981 5.0416 12.0603 5.0416 11.9166L5.0416 2.39088L3.07398 4.71626C2.98753 4.81493 2.87176 4.86952 2.75159 4.86829C2.63141 4.86705 2.51646 4.81009 2.43148 4.70966C2.3465 4.60923 2.2983 4.47337 2.29725 4.33135C2.29621 4.18933 2.3424 4.0525 2.42589 3.95034L5.17589 0.700341Z" fill="#979797"/>
</g>
<defs>
<clipPath id="clip0_50_329">
<rect width="13" height="11" fill="white" transform="matrix(0 -1 1 0 6 13)"/>
</clipPath>
<clipPath id="clip1_50_329">
<rect width="13" height="11" fill="white" transform="matrix(0 1 -1 0 11 0)"/>
</clipPath>
</defs>
</svg>
